<?xml version="1.0" encoding="UTF-8"?>
<svg width="128px" height="128px" viewBox="0 0 128 128" xmlns="http://www.w3.org/2000/svg">
  <g fill="#61DAFB">
    <circle cx="64" cy="64" r="11.4"/>
    <path d="M107.3 45.2c-2.2-.8-4.5-1.6-6.9-2.3.6-2.4 1-5 1.1-7.6 0-1.2-.1-2.4-.2-3.6h-6.1c-.1 1.2-.2 2.4-.2 3.6 0 2.6.4 5.2 1.1 7.6-2.4.7-4.7 1.4-6.9 2.3C85.2 49 80 54 76.1 60c-3.9-6-9.1-11-16.2-14.8-2.2-.8-4.5-1.6-6.9-2.3.6-2.4 1-5 1.1-7.6 0-1.2-.1-2.4-.2-3.6h-6.1c-.1 1.2-.2 2.4-.2 3.6 0 2.6.4 5.2 1.1 7.6-2.4.7-4.7 1.4-6.9 2.3C42.8 49 37.6 54 33.7 60c3.9 6 9.1 11 16.2 14.8 2.2.8 4.5 1.6 6.9 2.3-.6 2.4-1 5-1.1 7.6 0 1.2.1 2.4.2 3.6h6.1c.1-1.2.2-2.4.2-3.6 0-2.6-.4-5.2-1.1-7.6 2.4-.7 4.7-1.4 6.9-2.3C85.2 79 90.4 74 94.3 68c-3.9-6-9.1-11-16.2-14.8zM64 87.3c-12.9 0-23.3-10.4-23.3-23.3S51.1 40.7 64 40.7s23.3 10.4 23.3 23.3-10.4 23.3-23.3 23.3z"/>
  </g>
</svg> 